Coordinates
version=1
nRows=14
nColumns=33
inDegrees=yes

Units are S.I. units (second, meters, Newtons, ...)
Angles are in degrees.

endheader
time	ground_thorax_rot_x	ground_thorax_rot_y	ground_thorax_rot_z	ground_thorax_tx	ground_thorax_ty	ground_thorax_tz	clav_prot_r	clav_elev_r	scapula_abduction_r	scapula_elevation_r	scapula_upward_rot_r	scapula_winging_r	shoulder_elv_r	plane_of_elev_r	axial_rot_r	elbow_flexion_r	pro_sup_r	wrist_flex_r	wrist_dev_r	clav_prot_l	clav_elev_l	scapula_abduction_l	scapula_elevation_l	scapula_upward_rot_l	scapula_winging_l	shoulder_elv_l	plane_of_elev_l	axial_rot_l	elbow_flexion_l	pro_sup_l	wrist_flex_l	wrist_dev_l
      7.65000000	    -27.18959443	    -30.76612498	     42.81588912	    -61.15295438	    771.50908960	     11.66071805	      9.19093452	    -45.00000000	     38.35827596	    -45.00000000	    -45.00000000	  -2975.74936591	  -2814.28843411	     28.71181506	     49.48908036	    367.23277643	     32.62120491	     17.50101942	     14.65350520	     15.64479057	     38.03691681	    -33.86517413	    -45.00000000	    -45.00000000	    436.82693129	  -4063.38040794	    137.48642457	    179.99999979	    363.99207969	     34.39715410	     11.45679928	    -18.49208515
      7.66000000	    -27.33438743	    -30.67197323	     42.58982198	    -61.09201638	    771.77837193	     11.92225743	      9.25804206	    -45.00000000	     38.25644530	    -45.00000000	    -45.00000000	  -2975.56326076	  -2814.17753500	     28.67730462	     50.05907410	    367.41483961	     32.80222533	     17.85778031	     14.73859400	     15.35415755	     38.15682071	    -33.97118359	    -45.00000000	    -45.00000000	    436.85536292	  -4063.35807701	    137.40727437	    179.99999979	    363.99104675	     34.63258357	     11.15599086	    -18.78342514
      7.67000000	    -27.22634343	    -30.65955919	     42.59759089	    -61.22942836	    772.04616457	     12.11481533	      9.09322123	    -45.00000000	     38.49610333	    -45.00000000	    -45.00000000	  -2975.75685894	  -2814.15964895	     28.78146507	     50.31572704	    367.56031392	     32.87710376	     17.66140323	     14.48798696	     15.58149576	     38.04307141	    -33.95940947	    -45.00000000	    -45.00000000	    436.83241589	  -4063.50452954	    137.36274259	    179.99999979	    364.00895392	     34.95075238	     11.23237687	    -18.67151163
      7.68000000	    -27.40084465	    -30.63880418	     42.49063412	    -61.55857544	    772.29659965	     12.23370892	      9.24649119	    -45.00000000	     38.09827036	    -45.00000000	    -45.00000000	  -2975.57507226	  -2814.11329504	     28.75251493	     50.69761417	    367.50399431	     32.92998043	     17.88614728	     14.62268136	     15.33872551	     38.14241008	    -34.05121434	    -45.00000000	    -45.00000000	    436.99005574	  -4063.32220313	    137.31274442	    179.99999979	    364.18925035	     35.16463210	     11.01653394	    -18.92727241
      7.69000000	    -27.38964348	    -30.68748401	     42.46893816	    -62.06873149	    772.52218290	     12.27787459	      9.07195976	    -45.00000000	     38.41815878	    -45.00000000	    -45.00000000	  -2975.73830996	  -2814.14522074	     28.80604401	     50.97469563	    367.69118593	     32.88954950	     17.74947241	     14.36887784	     15.51385629	     38.07261970	    -34.07425415	    -45.00000000	    -45.00000000	    437.03303771	  -4063.33710868	    137.32704527	    179.99999979	    364.13312186	     35.42023909	     11.03969369	    -18.89081046
      7.70000000	    -27.55075700	    -30.52258060	     42.20951917	    -62.76036065	    772.73205647	     12.25384915	      9.15300890	    -45.00000000	     38.33411904	    -45.00000000	    -45.00000000	  -2975.78439627	  -2813.95554033	     28.89297106	     51.28329024	    367.96273851	     32.79475097	     17.91524007	     14.39170828	     15.33704387	     37.92572099	    -34.30052197	    -45.00000000	    -45.00000000	    437.34378747	  -4063.42785209	    137.09291811	    179.99999979	    364.28372799	     35.50492273	     10.95617544	    -19.09519650
      7.71000000	    -27.61772689	    -30.59414937	     42.17604499	    -63.62956359	    772.93632151	     12.16835827	      9.06465591	    -45.00000000	     38.38228749	    -45.00000000	    -45.00000000	  -2975.83096253	  -2813.97676519	     28.91079163	     51.45584421	    368.02106253	     32.62890127	     17.82328285	     14.19028595	     15.46766792	     38.08519235	    -34.31088848	    -45.00000000	    -45.00000000	    437.39722818	  -4063.25132583	    137.20006816	    179.99999979	    364.32323237	     35.52018271	     10.92699086	    -19.12092103
      7.72000000	    -27.68072469	    -30.57468120	     42.11158354	    -64.67165489	    773.15331345	     12.03037579	      9.12825867	    -45.00000000	     38.30065573	    -45.00000000	    -45.00000000	  -2975.81712351	  -2813.79603254	     28.94955208	     51.64174570	    368.06504112	     32.37599992	     17.84573990	     14.15598196	     15.48424037	     38.21070099	    -34.34689557	    -45.00000000	    -45.00000000	    437.49709705	  -4063.04828854	    137.25337871	    179.99999979	    364.48597746	     35.36359292	     10.86243908	    -19.22769835
      7.73000000	    -27.87225469	    -30.44444811	     41.87854729	    -65.88461346	    773.40451999	     11.84946528	      9.13685024	    -45.00000000	     38.29135748	    -45.00000000	    -45.00000000	  -2975.92148601	  -2813.69771401	     29.03367180	     51.75138278	    368.21391456	     32.06500810	     17.84134630	     14.03388372	     15.48369403	     38.24299007	    -34.51020422	    -45.00000000	    -45.00000000	    437.75249734	  -4062.97699095	    137.14001991	    179.99999979	    364.62827909	     35.08845253	     10.83307654	    -19.33380815
      7.74000000	    -28.01590463	    -30.38311238	     41.63354726	    -67.27006904	    773.71488169	     11.63457713	      9.12950184	    -45.00000000	     38.33826521	    -45.00000000	    -45.00000000	  -2975.97029091	  -2813.49243712	     29.14411629	     51.68277701	    368.39660667	     31.66419878	     17.84635324	     13.93554845	     15.53804966	     38.31638421	    -34.61180791	    -45.00000000	    -45.00000000	    437.95937653	  -4062.86355731	    137.12039746	    179.99999979	    364.78178500	     34.67443194	     10.79799654	    -19.42110681
      7.75000000	    -28.21408248	    -30.22434583	     41.31422305	    -68.82697883	    774.10854520	     11.39431900	      9.13636639	    -45.00000000	     38.39644532	    -45.00000000	    -45.00000000	  -2976.02221175	  -2813.27732437	     29.27529036	     51.51543662	    368.52832016	     31.22707884	     17.84218644	     13.83426233	     15.57152935	     38.38241998	    -34.78533229	    -45.00000000	    -45.00000000	    438.20551329	  -4062.72474279	    137.05106836	    179.99999979	    364.95114246	     34.14721930	     10.75906913	    -19.51330166
      7.76000000	    -28.45050510	    -30.07286088	     40.95779533	    -70.55804016	    774.61158509	     11.13501053	      9.14573483	    -45.00000000	     38.43099416	    -45.00000000	    -45.00000000	  -2976.09012009	  -2813.07031996	     29.42217069	     51.27945969	    368.69675618	     30.75946710	     17.84497017	     13.72118929	     15.61305866	     38.44115730	    -34.98174498	    -45.00000000	    -45.00000000	    438.49105173	  -4062.55858267	    136.98389065	    179.99999979	    365.13708315	     33.52688378	     10.70860581	    -19.60148751
      7.77000000	    -28.66276009	    -29.92935838	     40.57507803	    -72.46346824	    775.24625741	     10.86221824	      9.13555763	    -45.00000000	     38.55128561	    -45.00000000	    -45.00000000	  -2976.15129467	  -2812.79371417	     29.55908755	     50.96487216	    368.94355184	     30.25004619	     17.86497387	     13.62237187	     15.69471667	     38.52303782	    -35.14198357	    -45.00000000	    -45.00000000	    438.74436136	  -4062.38112509	    136.95990489	    179.99999979	    365.32091379	     32.79815624	     10.64104487	    -19.66861067
      7.78000000	    -29.00929195	    -29.65688280	     40.04342777	    -74.54736481	    776.03253846	     10.57983640	      9.15559674	    -45.00000000	     38.54599368	    -45.00000000	    -45.00000000	  -2976.21886717	  -2812.54064862	     29.78770871	     50.57163457	    369.09017934	     29.76440938	     17.86576325	     13.46638170	     15.70489361	     38.59246756	    -35.44733175	    -45.00000000	    -45.00000000	    439.08447974	  -4062.15979935	    136.85077049	    179.99999979	    365.56534550	     32.05298921	     10.55977623	    -19.76377709
